<svg height="512" viewBox="0 0 512 512" width="512" xmlns="http://www.w3.org/2000/svg"><g id="Flat"><path d="m312 288h96a48 48 0 0 0 48-48v-104h-144z" fill="#784533"/><path d="m488 328v128a32 32 0 0 1 -32 32h-208v-160a40 40 0 0 1 40-40h32a16 16 0 0 0 16-16v-56h64v56a16 16 0 0 0 16 16h32a40 40 0 0 1 40 40z" fill="#fdc8a2"/><path d="m400 208v48.51a72.1 72.1 0 0 1 -64 0v-48.51z" fill="#fdb683"/><path d="m424 288h24a40 40 0 0 1 40 40v128a32 32 0 0 1 -32 32h-208v-160a40 40 0 0 1 40-40h24l1.144 2.861a59.082 59.082 0 0 0 54.856 37.139 59.082 59.082 0 0 0 54.856-37.139z" fill="#de5540"/><path d="m444 136h-4v40h4a20 20 0 0 0 20-20 20 20 0 0 0 -20-20z" fill="#fdbf92"/><path d="m328 80h80a32 32 0 0 1 32 32v64a72 72 0 0 1 -72 72 72 72 0 0 1 -72-72v-64a32 32 0 0 1 32-32z" fill="#fdc8a2"/><path d="m332 136a12 12 0 1 0 12 12 12.013 12.013 0 0 0 -12-12z" fill="#844e3a"/><path d="m404 136a12 12 0 1 0 12 12 12.013 12.013 0 0 0 -12-12z" fill="#844e3a"/><path d="m368 192a8.009 8.009 0 0 1 -8-8h-16a24 24 0 0 0 48 0h-16a8.009 8.009 0 0 1 -8 8z" fill="#fcb079"/><path d="m328 120 56-40 56 56h16v-24a88 88 0 0 0 -88-88 88 88 0 0 0 -88 88v128a48 48 0 0 0 48 48z" fill="#844e3a"/><path d="m374.359 46.672c-47.477 1.827-67.332 39.749-68.154 41.363l14.242 7.291c.662-1.273 16.643-31.208 54.527-32.665z" fill="#784533"/><path d="m451.3 377.049-29.3-95.799a8 8 0 0 0 -10.176-5.209 8 8 0 0 0 -5.1 9.96l22.538 74h-116.806l15.044-72.751a8 8 0 0 0 -6.057-9.479h-.015a8 8 0 0 0 -9.58 6.111l-20.015 95.288a58.047 58.047 0 0 0 12.167 60.83v48h136v-48c16.438-17.022 20.2-42.189 11.3-62.951z" fill="#844e3a"/><path d="m184 104a80 80 0 1 0 -96.9 78.2l16.9 25.8 16.9-25.8a80.018 80.018 0 0 0 63.1-78.2z" fill="#ffb431"/><path d="m136 88v-2.053a21.973 21.973 0 0 0 -21.947-21.947h-2.053v-16h-16v16h-2.053a21.947 21.947 0 0 0 -6.94 42.768l28.927 9.643a5.947 5.947 0 0 1 -1.881 11.589h-20.106a5.954 5.954 0 0 1 -5.947-5.947v-2.053h-16v2.053a21.973 21.973 0 0 0 21.947 21.947h2.053v16h16v-16h2.053a21.947 21.947 0 0 0 6.94-42.768l-28.927-9.643a5.947 5.947 0 0 1 1.881-11.589h20.106a5.954 5.954 0 0 1 5.947 5.947v2.053z" fill="#ffc261"/><path d="m352 440v48h104a32 32 0 0 0 32-32v-16z" fill="#de5540"/><path d="m352 440-32-24h-56v40h32a42.246 42.246 0 0 0 40.985 32h15.015z" fill="#fdc8a2"/><path d="m304 488h-280v-128h176 32l72 88z" fill="#3ba5d3"/><path d="m24 360h176v128h-176z" fill="#4db6e4"/><path d="m40 240h128v64h-128z" fill="#4db6e4"/><g fill="#2d96c3"><path d="m128 264h16v16h-16z"/><path d="m96 264h16v16h-16z"/><path d="m64 264h16v16h-16z"/></g><path d="m48 384h16v16h-16z" fill="#5cc1ed"/><path d="m48 416h16v48h-16z" fill="#5cc1ed"/><path d="m88 304h32v56h-32z" fill="#dfdfdd"/><path d="m88 304h32v16h-32z" fill="#d5d5d3"/></g></svg>